<mxfile host="Electron" agent="Mozilla/5.0 (X11; Linux x86_64) AppleWebKit/537.36 (KHTML, like Gecko) draw.io/26.0.4 Chrome/128.0.6613.186 Electron/32.2.5 Safari/537.36" version="26.0.4">
  <diagram name="Page-1" id="Hhfgo-TDEYiLuCcDnroD">
    <mxGraphModel dx="1114" dy="1198" grid="1" gridSize="10" guides="1" tooltips="1" connect="1" arrows="1" fold="1" page="1" pageScale="1" pageWidth="850" pageHeight="1100" math="0" shadow="0">
      <root>
        <mxCell id="0" />
        <mxCell id="1" parent="0" />
        <mxCell id="rBSYeIAMS_9aqsEj__X9-1" value="Region" style="points=[[0,0],[0.25,0],[0.5,0],[0.75,0],[1,0],[1,0.25],[1,0.5],[1,0.75],[1,1],[0.75,1],[0.5,1],[0.25,1],[0,1],[0,0.75],[0,0.5],[0,0.25]];outlineConnect=0;gradientColor=none;html=1;whiteSpace=wrap;fontSize=12;fontStyle=0;container=1;pointerEvents=0;collapsible=0;recursiveResize=0;shape=mxgraph.aws4.group;grIcon=mxgraph.aws4.group_region;strokeColor=#00A4A6;fillColor=none;verticalAlign=top;align=left;spacingLeft=30;fontColor=#147EBA;dashed=1;" vertex="1" parent="1">
          <mxGeometry x="240" y="340" width="410" height="530" as="geometry" />
        </mxCell>
        <mxCell id="rBSYeIAMS_9aqsEj__X9-3" value="VPC" style="points=[[0,0],[0.25,0],[0.5,0],[0.75,0],[1,0],[1,0.25],[1,0.5],[1,0.75],[1,1],[0.75,1],[0.5,1],[0.25,1],[0,1],[0,0.75],[0,0.5],[0,0.25]];outlineConnect=0;gradientColor=none;html=1;whiteSpace=wrap;fontSize=12;fontStyle=0;container=1;pointerEvents=0;collapsible=0;recursiveResize=0;shape=mxgraph.aws4.group;grIcon=mxgraph.aws4.group_vpc2;strokeColor=#8C4FFF;fillColor=none;verticalAlign=top;align=left;spacingLeft=30;fontColor=#AAB7B8;dashed=0;" vertex="1" parent="rBSYeIAMS_9aqsEj__X9-1">
          <mxGeometry x="20" y="50" width="380" height="470" as="geometry" />
        </mxCell>
        <mxCell id="rBSYeIAMS_9aqsEj__X9-23" value="AZ - B" style="fillColor=none;strokeColor=#147EBA;dashed=1;verticalAlign=bottom;fontStyle=0;fontColor=#147EBA;whiteSpace=wrap;html=1;" vertex="1" parent="rBSYeIAMS_9aqsEj__X9-3">
          <mxGeometry x="220" y="140" width="150" height="320" as="geometry" />
        </mxCell>
        <mxCell id="rBSYeIAMS_9aqsEj__X9-8" value="AZ - A" style="fillColor=none;strokeColor=#147EBA;dashed=1;verticalAlign=bottom;fontStyle=0;fontColor=#147EBA;whiteSpace=wrap;html=1;" vertex="1" parent="rBSYeIAMS_9aqsEj__X9-3">
          <mxGeometry x="10" y="140" width="150" height="320" as="geometry" />
        </mxCell>
        <mxCell id="rBSYeIAMS_9aqsEj__X9-16" value="Router" style="sketch=0;outlineConnect=0;fontColor=#232F3E;gradientColor=none;fillColor=#8C4FFF;strokeColor=none;dashed=0;verticalLabelPosition=middle;verticalAlign=middle;align=right;html=1;fontSize=12;fontStyle=0;aspect=fixed;pointerEvents=1;shape=mxgraph.aws4.router;labelPosition=left;spacingRight=5;" vertex="1" parent="rBSYeIAMS_9aqsEj__X9-3">
          <mxGeometry x="150" y="70" width="78" height="78" as="geometry" />
        </mxCell>
        <mxCell id="rBSYeIAMS_9aqsEj__X9-6" value="Private subnet" style="points=[[0,0],[0.25,0],[0.5,0],[0.75,0],[1,0],[1,0.25],[1,0.5],[1,0.75],[1,1],[0.75,1],[0.5,1],[0.25,1],[0,1],[0,0.75],[0,0.5],[0,0.25]];outlineConnect=0;gradientColor=none;html=1;whiteSpace=wrap;fontSize=12;fontStyle=0;container=1;pointerEvents=0;collapsible=0;recursiveResize=0;shape=mxgraph.aws4.group;grIcon=mxgraph.aws4.group_security_group;grStroke=0;strokeColor=#00A4A6;fillColor=#E6F6F7;verticalAlign=top;align=left;spacingLeft=30;fontColor=#147EBA;dashed=0;" vertex="1" parent="rBSYeIAMS_9aqsEj__X9-3">
          <mxGeometry x="20" y="301" width="130" height="140" as="geometry" />
        </mxCell>
        <mxCell id="rBSYeIAMS_9aqsEj__X9-7" value="Public subnet" style="points=[[0,0],[0.25,0],[0.5,0],[0.75,0],[1,0],[1,0.25],[1,0.5],[1,0.75],[1,1],[0.75,1],[0.5,1],[0.25,1],[0,1],[0,0.75],[0,0.5],[0,0.25]];outlineConnect=0;gradientColor=none;html=1;whiteSpace=wrap;fontSize=12;fontStyle=0;container=1;pointerEvents=0;collapsible=0;recursiveResize=0;shape=mxgraph.aws4.group;grIcon=mxgraph.aws4.group_security_group;grStroke=0;strokeColor=#7AA116;fillColor=#F2F6E8;verticalAlign=top;align=left;spacingLeft=30;fontColor=#248814;dashed=0;" vertex="1" parent="rBSYeIAMS_9aqsEj__X9-3">
          <mxGeometry x="20" y="150" width="130" height="140" as="geometry" />
        </mxCell>
        <mxCell id="rBSYeIAMS_9aqsEj__X9-9" value="NAT Gateway" style="sketch=0;outlineConnect=0;fontColor=#232F3E;gradientColor=none;fillColor=#8C4FFF;strokeColor=none;dashed=0;verticalLabelPosition=top;verticalAlign=bottom;align=center;html=1;fontSize=12;fontStyle=0;aspect=fixed;pointerEvents=1;shape=mxgraph.aws4.nat_gateway;labelPosition=center;" vertex="1" parent="rBSYeIAMS_9aqsEj__X9-7">
          <mxGeometry x="30" y="46" width="78" height="78" as="geometry" />
        </mxCell>
        <mxCell id="rBSYeIAMS_9aqsEj__X9-19" value="Private subnet" style="points=[[0,0],[0.25,0],[0.5,0],[0.75,0],[1,0],[1,0.25],[1,0.5],[1,0.75],[1,1],[0.75,1],[0.5,1],[0.25,1],[0,1],[0,0.75],[0,0.5],[0,0.25]];outlineConnect=0;gradientColor=none;html=1;whiteSpace=wrap;fontSize=12;fontStyle=0;container=1;pointerEvents=0;collapsible=0;recursiveResize=0;shape=mxgraph.aws4.group;grIcon=mxgraph.aws4.group_security_group;grStroke=0;strokeColor=#00A4A6;fillColor=#E6F6F7;verticalAlign=top;align=left;spacingLeft=30;fontColor=#147EBA;dashed=0;" vertex="1" parent="rBSYeIAMS_9aqsEj__X9-3">
          <mxGeometry x="230" y="301" width="130" height="140" as="geometry" />
        </mxCell>
        <mxCell id="rBSYeIAMS_9aqsEj__X9-21" value="Public subnet" style="points=[[0,0],[0.25,0],[0.5,0],[0.75,0],[1,0],[1,0.25],[1,0.5],[1,0.75],[1,1],[0.75,1],[0.5,1],[0.25,1],[0,1],[0,0.75],[0,0.5],[0,0.25]];outlineConnect=0;gradientColor=none;html=1;whiteSpace=wrap;fontSize=12;fontStyle=0;container=1;pointerEvents=0;collapsible=0;recursiveResize=0;shape=mxgraph.aws4.group;grIcon=mxgraph.aws4.group_security_group;grStroke=0;strokeColor=#7AA116;fillColor=#F2F6E8;verticalAlign=top;align=left;spacingLeft=30;fontColor=#248814;dashed=0;" vertex="1" parent="rBSYeIAMS_9aqsEj__X9-3">
          <mxGeometry x="230" y="150" width="130" height="140" as="geometry" />
        </mxCell>
        <mxCell id="rBSYeIAMS_9aqsEj__X9-4" value="Internet&lt;div&gt;Gateway&lt;/div&gt;" style="sketch=0;outlineConnect=0;fontColor=#232F3E;gradientColor=none;fillColor=#8C4FFF;strokeColor=none;dashed=0;verticalLabelPosition=middle;verticalAlign=middle;align=right;html=1;fontSize=12;fontStyle=0;aspect=fixed;pointerEvents=1;shape=mxgraph.aws4.internet_gateway;labelPosition=left;spacingRight=5;" vertex="1" parent="rBSYeIAMS_9aqsEj__X9-3">
          <mxGeometry x="150" y="-40" width="78" height="78" as="geometry" />
        </mxCell>
        <mxCell id="rBSYeIAMS_9aqsEj__X9-18" style="edgeStyle=orthogonalEdgeStyle;rounded=0;orthogonalLoop=1;jettySize=auto;html=1;startArrow=classic;startFill=1;" edge="1" parent="rBSYeIAMS_9aqsEj__X9-3" source="rBSYeIAMS_9aqsEj__X9-16" target="rBSYeIAMS_9aqsEj__X9-4">
          <mxGeometry relative="1" as="geometry" />
        </mxCell>
        <mxCell id="rBSYeIAMS_9aqsEj__X9-24" style="edgeStyle=orthogonalEdgeStyle;rounded=0;orthogonalLoop=1;jettySize=auto;html=1;" edge="1" parent="rBSYeIAMS_9aqsEj__X9-3" source="rBSYeIAMS_9aqsEj__X9-10" target="rBSYeIAMS_9aqsEj__X9-9">
          <mxGeometry relative="1" as="geometry" />
        </mxCell>
        <mxCell id="rBSYeIAMS_9aqsEj__X9-10" value="EC2 Instance" style="sketch=0;points=[[0,0,0],[0.25,0,0],[0.5,0,0],[0.75,0,0],[1,0,0],[0,1,0],[0.25,1,0],[0.5,1,0],[0.75,1,0],[1,1,0],[0,0.25,0],[0,0.5,0],[0,0.75,0],[1,0.25,0],[1,0.5,0],[1,0.75,0]];outlineConnect=0;fontColor=#232F3E;fillColor=#ED7100;strokeColor=#ffffff;dashed=0;verticalLabelPosition=bottom;verticalAlign=top;align=center;html=1;fontSize=12;fontStyle=0;aspect=fixed;shape=mxgraph.aws4.resourceIcon;resIcon=mxgraph.aws4.ec2;" vertex="1" parent="rBSYeIAMS_9aqsEj__X9-3">
          <mxGeometry x="50" y="332" width="78" height="78" as="geometry" />
        </mxCell>
        <mxCell id="rBSYeIAMS_9aqsEj__X9-25" style="edgeStyle=orthogonalEdgeStyle;rounded=0;orthogonalLoop=1;jettySize=auto;html=1;" edge="1" parent="rBSYeIAMS_9aqsEj__X9-3" source="rBSYeIAMS_9aqsEj__X9-9" target="rBSYeIAMS_9aqsEj__X9-16">
          <mxGeometry relative="1" as="geometry">
            <Array as="points">
              <mxPoint x="180" y="220" />
            </Array>
          </mxGeometry>
        </mxCell>
        <mxCell id="rBSYeIAMS_9aqsEj__X9-26" style="edgeStyle=orthogonalEdgeStyle;rounded=0;orthogonalLoop=1;jettySize=auto;html=1;" edge="1" parent="rBSYeIAMS_9aqsEj__X9-3" source="rBSYeIAMS_9aqsEj__X9-20" target="rBSYeIAMS_9aqsEj__X9-22">
          <mxGeometry relative="1" as="geometry" />
        </mxCell>
        <mxCell id="rBSYeIAMS_9aqsEj__X9-20" value="EC2 Instance" style="sketch=0;points=[[0,0,0],[0.25,0,0],[0.5,0,0],[0.75,0,0],[1,0,0],[0,1,0],[0.25,1,0],[0.5,1,0],[0.75,1,0],[1,1,0],[0,0.25,0],[0,0.5,0],[0,0.75,0],[1,0.25,0],[1,0.5,0],[1,0.75,0]];outlineConnect=0;fontColor=#232F3E;fillColor=#ED7100;strokeColor=#ffffff;dashed=0;verticalLabelPosition=bottom;verticalAlign=top;align=center;html=1;fontSize=12;fontStyle=0;aspect=fixed;shape=mxgraph.aws4.resourceIcon;resIcon=mxgraph.aws4.ec2;" vertex="1" parent="rBSYeIAMS_9aqsEj__X9-3">
          <mxGeometry x="260" y="332" width="78" height="78" as="geometry" />
        </mxCell>
        <mxCell id="rBSYeIAMS_9aqsEj__X9-27" style="edgeStyle=orthogonalEdgeStyle;rounded=0;orthogonalLoop=1;jettySize=auto;html=1;" edge="1" parent="rBSYeIAMS_9aqsEj__X9-3" source="rBSYeIAMS_9aqsEj__X9-22" target="rBSYeIAMS_9aqsEj__X9-16">
          <mxGeometry relative="1" as="geometry">
            <Array as="points">
              <mxPoint x="200" y="220" />
            </Array>
          </mxGeometry>
        </mxCell>
        <mxCell id="rBSYeIAMS_9aqsEj__X9-22" value="NAT Gateway" style="sketch=0;outlineConnect=0;fontColor=#232F3E;gradientColor=none;fillColor=#8C4FFF;strokeColor=none;dashed=0;verticalLabelPosition=top;verticalAlign=bottom;align=center;html=1;fontSize=12;fontStyle=0;aspect=fixed;pointerEvents=1;shape=mxgraph.aws4.nat_gateway;labelPosition=center;" vertex="1" parent="rBSYeIAMS_9aqsEj__X9-3">
          <mxGeometry x="260" y="196" width="78" height="78" as="geometry" />
        </mxCell>
        <mxCell id="rBSYeIAMS_9aqsEj__X9-5" value="Internet" style="sketch=0;outlineConnect=0;fontColor=#232F3E;gradientColor=none;fillColor=#232F3D;strokeColor=none;dashed=0;verticalLabelPosition=top;verticalAlign=bottom;align=center;html=1;fontSize=12;fontStyle=0;aspect=fixed;pointerEvents=1;shape=mxgraph.aws4.internet_alt22;labelPosition=center;" vertex="1" parent="1">
          <mxGeometry x="570" y="170" width="78" height="78" as="geometry" />
        </mxCell>
        <mxCell id="rBSYeIAMS_9aqsEj__X9-17" value="&amp;nbsp;www&amp;nbsp;" style="edgeStyle=orthogonalEdgeStyle;rounded=0;orthogonalLoop=1;jettySize=auto;html=1;" edge="1" parent="1" source="rBSYeIAMS_9aqsEj__X9-4" target="rBSYeIAMS_9aqsEj__X9-5">
          <mxGeometry relative="1" as="geometry">
            <Array as="points">
              <mxPoint x="449" y="300" />
              <mxPoint x="609" y="300" />
            </Array>
          </mxGeometry>
        </mxCell>
      </root>
    </mxGraphModel>
  </diagram>
</mxfile>
